<?xml version="1.0" encoding="UTF-8" standalone="no"?>
<!-- Generator: Adobe Illustrator 19.0.0, SVG Export Plug-In . SVG Version: 6.00 Build 0)  -->

<svg
   xmlns:dc="http://purl.org/dc/elements/1.1/"
   xmlns:cc="http://creativecommons.org/ns#"
   xmlns:rdf="http://www.w3.org/1999/02/22-rdf-syntax-ns#"
   xmlns:svg="http://www.w3.org/2000/svg"
   xmlns="http://www.w3.org/2000/svg"
   xmlns:sodipodi="http://sodipodi.sourceforge.net/DTD/sodipodi-0.dtd"
   xmlns:inkscape="http://www.inkscape.org/namespaces/inkscape"
   version="1.1"
   id="Ebene_1"
   x="0px"
   y="0px"
   viewBox="0 0 16 16"
   style="enable-background:new 0 0 16 16;"
   xml:space="preserve"
   sodipodi:docname="workflow_reader.svg"
   inkscape:version="0.92.5 (2060ec1f9f, 2020-04-08)"
   inkscape:export-filename="/home/hornm/dev-knime/workspace/knime-buildworkflows/org.knime.python.llm.java/src/org/knime/buildworkflows/reader/workflow_reader.png"
   inkscape:export-xdpi="96"
   inkscape:export-ydpi="96"><metadata
   id="metadata33"><rdf:RDF><cc:Work
       rdf:about=""><dc:format>image/svg+xml</dc:format><dc:type
         rdf:resource="http://purl.org/dc/dcmitype/StillImage" /><dc:title></dc:title></cc:Work></rdf:RDF></metadata><defs
   id="defs31" /><sodipodi:namedview
   pagecolor="#ffffff"
   bordercolor="#666666"
   borderopacity="1"
   objecttolerance="10"
   gridtolerance="10"
   guidetolerance="10"
   inkscape:pageopacity="0"
   inkscape:pageshadow="2"
   inkscape:window-width="1718"
   inkscape:window-height="1016"
   id="namedview29"
   showgrid="true"
   inkscape:zoom="32.000001"
   inkscape:cx="5.3065516"
   inkscape:cy="7.1036441"
   inkscape:window-x="0"
   inkscape:window-y="27"
   inkscape:window-maximized="0"
   inkscape:current-layer="Ebene_1"
   inkscape:snap-object-midpoints="true"><inkscape:grid
     type="xygrid"
     id="grid845" /></sodipodi:namedview>
<style
   type="text/css"
   id="style2">
	.st0{fill:#FFFFFF;}
</style>


<path
   inkscape:connector-curvature="0"
   style="fill:none;stroke:#000000;stroke-width:1;stroke-linejoin:round;stroke-miterlimit:10;stroke-dasharray:none"
   d="m 11.1,5.5 h 2.8 c 0.35,0 0.6,0.25 0.6,0.6 v 2.8 c 0,0.35 -0.25,0.6 -0.6,0.6 H 11.1 C 10.75,9.5 10.5,9.25 10.5,8.9 V 6.1 c 0,-0.3 0.3,-0.6 0.6,-0.6 z"
   id="path6-4-5" /><line
   style="fill:none;stroke:#000000;stroke-width:1;stroke-linejoin:round;stroke-miterlimit:10;stroke-dasharray:none"
   x1="14.325"
   y1="5.6750002"
   x2="10.674999"
   y2="9.3249998"
   id="line8-53" /><path
   inkscape:connector-curvature="0"
   style="fill:none;stroke:#000000;stroke-width:1;stroke-linejoin:round;stroke-miterlimit:10;stroke-dasharray:none"
   d="m 1.1000003,10.5 h 2.8 c 0.35,0 0.6,0.25 0.6,0.6 v 2.8 c 0,0.35 -0.25,0.6 -0.6,0.6 h -2.8 c -0.34999996,0 -0.59999996,-0.25 -0.59999996,-0.6 v -2.8 c 0,-0.3 0.3,-0.6 0.59999996,-0.6 z"
   id="path6-4-5-4" /><line
   style="fill:none;stroke:#000000;stroke-width:1;stroke-linejoin:round;stroke-miterlimit:10;stroke-dasharray:none"
   x1="4.3250012"
   y1="10.675"
   x2="0.67499959"
   y2="14.325"
   id="line8-53-4" /><path
   inkscape:connector-curvature="0"
   style="fill:none;stroke:#000000;stroke-width:1;stroke-linejoin:round;stroke-miterlimit:10;stroke-dasharray:none"
   d="m 1.1000003,0.5 h 2.8 c 0.35,0 0.6,0.25 0.6,0.6 v 2.8 c 0,0.35 -0.25,0.6 -0.6,0.6 h -2.8 C 0.75000034,4.5 0.50000034,4.25 0.50000034,3.9 V 1.1 c 0,-0.3 0.3,-0.6 0.59999996,-0.6 z"
   id="path6-4-5-4-5" /><line
   style="fill:none;stroke:#000000;stroke-width:1;stroke-linejoin:round;stroke-miterlimit:10;stroke-dasharray:none"
   x1="4.3250012"
   y1="0.67499924"
   x2="0.67499959"
   y2="4.3249998"
   id="line8-53-4-3" /><path
   inkscape:connector-curvature="0"
   style="fill:none;stroke:#000000;stroke-width:1;stroke-linejoin:round;stroke-miterlimit:10;stroke-dasharray:none"
   d="M 10,7.5 H 7.5000003 V 3 c 0,-0.274628 -0.225372,-0.500021 -0.5,-0.5 l -2,1.54e-4"
   id="path16-94"
   sodipodi:nodetypes="ccssc" /><path
   inkscape:connector-curvature="0"
   style="fill:none;stroke:#000000;stroke-width:1;stroke-linejoin:round;stroke-miterlimit:10;stroke-dasharray:none"
   d="m 5.0000003,12.500154 2,-1.53e-4 c 0.228858,-1.8e-5 0.5,-0.225373 0.5,-0.500001 V 7.5 H 10"
   id="path18-3"
   sodipodi:nodetypes="csscc" /><g
   id="g884"
   transform="rotate(-90,15.883975,-5.1160251)"><path
     inkscape:transform-center-y="0.49999982"
     d="M -3.4999999,-5.0000001 -4.3660254,-6.5 l -0.8660253,-1.4999999 1.7320507,0 1.7320507,-1e-7 -0.8660254,1.5 z"
     inkscape:randomized="0"
     inkscape:rounded="0"
     inkscape:flatsided="false"
     sodipodi:arg2="2.6179939"
     sodipodi:arg1="1.5707963"
     sodipodi:r2="0.99999994"
     sodipodi:r1="1.9999999"
     sodipodi:cy="-7"
     sodipodi:cx="-3.5"
     sodipodi:sides="3"
     id="path926"
     style="opacity:1;fill:#000000;fill-opacity:1;stroke:none;stroke-width:0.5;stroke-linecap:round;stroke-linejoin:miter;stroke-miterlimit:4;stroke-dasharray:none;stroke-dashoffset:0;stroke-opacity:1;paint-order:markers fill stroke"
     sodipodi:type="star" /><rect
     y="-12"
     x="-4"
     height="5"
     width="1"
     id="rect958"
     style="opacity:1;fill:#000000;fill-opacity:1;stroke:none;stroke-width:0.5;stroke-linecap:round;stroke-linejoin:miter;stroke-miterlimit:4;stroke-dasharray:none;stroke-dashoffset:0;stroke-opacity:1;paint-order:markers fill stroke" /></g></svg>